<svg xmlns="http://www.w3.org/2000/svg" xmlns:xlink="http://www.w3.org/1999/xlink" width="28" height="28" viewBox="0 0 28 28">
  <defs>
    <clipPath id="clip-path">
      <circle id="Ellipse_149" data-name="Ellipse 149" cx="14" cy="14" r="14" transform="translate(0.469 0.469)" fill="#fff" stroke="#707070" stroke-width="1"/>
    </clipPath>
  </defs>
  <g id="player_icon" transform="translate(-1629.469 657.531)">
    <circle id="Ellipse_150" data-name="Ellipse 150" cx="14" cy="14" r="14" transform="translate(1629.469 -657.531)" fill="#f5f5f5"/>
    <g id="Mask_Group_1" data-name="Mask Group 1" transform="translate(1629 -658)" clip-path="url(#clip-path)">
      <g id="Group_19" data-name="Group 19" transform="translate(0 2.058)">
        <g id="Group_18" data-name="Group 18" transform="translate(0 0.59)">
          <path id="Path_1" data-name="Path 1" d="M30.986,9.824c-.929,4.376-6.8,5.954-16.725,5.593S-.822,7.876.107,3.5,6.82-.971,16.58,2.225,31.915,5.45,30.986,9.824Z" transform="matrix(0.921, -0.391, 0.391, 0.921, 4.588, 75.212)" opacity="0.1"/>
          <g id="Group_13" data-name="Group 13" transform="translate(14.646 77.163)">
            <path id="Path_2" data-name="Path 2" d="M535.933,405.921a2.17,2.17,0,0,0,1.185.737,3.051,3.051,0,0,0,.88.173,2.514,2.514,0,0,0,.527-.056,4.734,4.734,0,0,0,2.214-1.451,6.448,6.448,0,0,0,.83-.98,4.988,4.988,0,0,0,.677-1.481c.018-.069.278-1.01.278-1.054.062.007.131.018.2.025a7.958,7.958,0,0,0,1.074-1.557c.241-.576-.007-.774.061-1.364a3.028,3.028,0,0,0,.044-1.544,1.436,1.436,0,0,0-1.141-.85,1.3,1.3,0,0,0-.576.012c-.266.088-.478.3-.756.367a2.666,2.666,0,0,1-.98-.1c-.353-.056-1.291-.143-1.539.192a.537.537,0,0,0-.074.173,15.016,15.016,0,0,1-.6,2.343l-.005.007a2.385,2.385,0,0,1-.175.323c-.428.687-.86,1.375-1.29,2.057a11.081,11.081,0,0,0-.712,1.321c-.062.125-.125.254-.192.4A2.641,2.641,0,0,0,535.933,405.921Z" transform="translate(-535.633 -396.494)" fill="#583612"/>
          </g>
          <path id="Path_3" data-name="Path 3" d="M529.331,398.509c.1.96.31,1.375,1.283,1.537a5.7,5.7,0,0,0,2.847-.148c.569-.212,1.96-.485,2.33-1l.441-.6.744-.284.081.434a8.122,8.122,0,0,0,1.55-.577c1.357-.576,1.63-1.253,1.63-1.253a9.452,9.452,0,0,1-.012-1.426,3.939,3.939,0,0,0-.36-1.618l-5.313-.231c-.155.323-.286.658-.446.98a1.185,1.185,0,0,1-.062.131c-.379.73-1.116.936-1.774,1.333-.731.446-2.623,1.326-2.907,2.362A.992.992,0,0,0,529.331,398.509Z" transform="translate(-524.587 -321.405)" fill="#4a2e10"/>
          <path id="Path_4" data-name="Path 4" d="M535.883,403.221a.833.833,0,0,0,.123.429,2.447,2.447,0,0,0,1.583.8.738.738,0,0,0,.808-.18,5.058,5.058,0,0,0,.643-.724,17.435,17.435,0,0,0,1.106-1.47,5.358,5.358,0,0,0,.763-1.35,7.793,7.793,0,0,0,.34-1.749c0-.042.03-.18.008-.215-.034-.052-.083-.035-.146-.049a2.2,2.2,0,0,0-.316-.049l-.877-.067a2.928,2.928,0,0,1-.364-.044,3.219,3.219,0,0,1-.988-.549,1.272,1.272,0,0,1-.308.48,2.6,2.6,0,0,1-.174.323c-.429.687-.862,1.375-1.291,2.057a11.087,11.087,0,0,0-.712,1.321c-.036.316-.173.6-.2.919C535.883,403.144,535.882,403.182,535.883,403.221Z" transform="translate(-520.78 -318.299)" fill="#674016"/>
          <path id="Path_5" data-name="Path 5" d="M529.347,397.75a.9.9,0,0,0,1.106.443c.51-.114,1.044-.1,1.544-.269a5.79,5.79,0,0,0,.88-.422,12.112,12.112,0,0,1,1.1-.519,2.01,2.01,0,0,0,.857-.5,2.356,2.356,0,0,0,.328-.545c.192-.385.366-.776.534-1.172a1.752,1.752,0,0,1-1.458-.626c-.049-.076-.1-.143-.148-.212a1.123,1.123,0,0,1-.062.131c-.379.731-1.116.936-1.774,1.333C531.524,395.835,529.632,396.715,529.347,397.75Z" transform="translate(-524.572 -321.005)" fill="#643e15"/>
          <g id="Group_14" data-name="Group 14" transform="translate(13.204 70.388)">
            <path id="Path_6" data-name="Path 6" d="M534.753,392.446c-.014-.01-.03,0-.046-.007s-.028-.02-.047-.027Z" transform="translate(-534.66 -392.412)" fill="#ebebeb"/>
          </g>
          <path id="Path_7" data-name="Path 7" d="M536.457,365.835a11.418,11.418,0,0,1,.455,2.428,10.72,10.72,0,0,1-.542,3c-.217.965.308,2.044-.219,2.968a28.237,28.237,0,0,1-1.9,2.616,19.068,19.068,0,0,0-1.576,3.05,3.642,3.642,0,0,0-.651,1.7c0,.051,0,.1,0,.157l.064.035s-.02.079-.06.211a2.931,2.931,0,0,1-.135,1.2c-.183.453-.3.771-.6.939a8.518,8.518,0,0,1-1.192,2.027c-.313.483-.089.544-1.349.529s-.884-.675-.884-.675l-.364-.178a.341.341,0,0,1-.182-.492l.9-2.106a.716.716,0,0,1-.1-.394c0-.032.029-.052.037-.081-.488.221-1.375.566-1.6.269-.315-.416,1.072-.82,1.527-1.212.293-.253.907-.7,1.311-.993.051-.1.1-.187.155-.288.263-.5.6-.958.855-1.47.492-1,.879-2.049,1.357-3.057a16.3,16.3,0,0,0,1.665-5.707c.057-.9.391-1.759.412-2.648.025-1.071.114-2.143.19-3.212.039-.549.914-1.308,1.488-1.084C536.176,363.625,536.3,365.242,536.457,365.835Z" transform="translate(-526.511 -341.786)" fill="#e8b58f"/>
          <path id="Path_8" data-name="Path 8" d="M534.892,376.233a1.226,1.226,0,0,0-.187-1.556,1.314,1.314,0,0,0,.162-.619,3.035,3.035,0,0,1,.653.264,6.9,6.9,0,0,1,2.407,3.2c.111.234.225.468.323.709.66,1.611.138,3.759.1,5.463a25.674,25.674,0,0,0,.476,6.943,28.248,28.248,0,0,1,.77,9.4c-.2,2.571-.007,6.981-.007,6.981a3.7,3.7,0,0,1-3.251,1.371,4.669,4.669,0,0,1-2.384-.645,1.593,1.593,0,0,1-.987-1.877,58.522,58.522,0,0,0-.064-7.084,49.7,49.7,0,0,0-.508-5.845,41.614,41.614,0,0,1-.672-6.128c-.1-1.714-.928-7.525-.519-9.951C532.419,377.122,534.2,377.354,534.892,376.233Z" transform="translate(-523.741 -334.534)" fill="#266392"/>
          <g id="Group_15" data-name="Group 15" transform="translate(7.3 40.833)">
            <path id="Path_9" data-name="Path 9" d="M538.133,407.5s-.189-4.411.007-6.981a28.292,28.292,0,0,0-.769-9.4,25.663,25.663,0,0,1-.478-6.942c.025-1.029.754-3.426-.16-4.032a12.749,12.749,0,0,0-2.875-1.268c-.51-.18-1.018-.365-1.515-.582-.455-.2-.8-.2-1.066-.641a1.911,1.911,0,0,1-.114-1.507,1.969,1.969,0,0,1,1.426-1.264,3.86,3.86,0,0,1,1.389.047l1.586.246a2.666,2.666,0,0,1,2.091,1.13,4.633,4.633,0,0,1,.817,2.123,28.148,28.148,0,0,1-.1,4.735,25.656,25.656,0,0,0,.476,6.943,28.258,28.258,0,0,1,.769,9.4c-.2,2.571-.007,6.981-.007,6.981a3.236,3.236,0,0,1-1.527,1.086C538.114,407.527,538.133,407.5,538.133,407.5Z" transform="translate(-531.06 -374.836)" fill="#145380"/>
          </g>
          <path id="Path_10" data-name="Path 10" d="M535.586,371.889a9.388,9.388,0,0,0-2.347-1.48,8.282,8.282,0,0,1-2.232-1.217c-.6-.471-.262-2.155-.2-2.808a18.317,18.317,0,0,1,.591-3.848,7.22,7.22,0,0,1,1.311-2.922,3.29,3.29,0,0,1,3.14-.736C537.655,359.171,537.131,366.26,535.586,371.889Z" transform="translate(-523.983 -344.836)" fill="#548de3"/>
          <path id="Path_11" data-name="Path 11" d="M531.189,362.015a3.9,3.9,0,0,1,1.161-2.4,3.289,3.289,0,0,1,3.14-.736c.434.071.69.635.81,1.517a12.68,12.68,0,0,1-2.537.03,3.493,3.493,0,0,0-2.246,1.187C531.394,361.735,531.3,361.883,531.189,362.015Z" transform="translate(-523.647 -344.836)" fill="#71a3ff"/>
          <g id="Group_16" data-name="Group 16" transform="translate(7.61 34.596)">
            <path id="Path_12" data-name="Path 12" d="M536.842,384.219a3.4,3.4,0,0,1-1.15-1.838,10.015,10.015,0,0,1,.251-3.392c.056-.222.039-.249-.116-.372-.18-.146-.38-.274-.567-.412l-1.177-.867q-.833-.614-1.665-1.225a1.789,1.789,0,0,0-1.1-.118,16.832,16.832,0,0,1,.781-4.86s-.283.757,4.828,3.631a14.677,14.677,0,0,0,3.936,1.584,6.38,6.38,0,0,0,2.872.153,4.141,4.141,0,0,1,1.325.168,1.979,1.979,0,0,1,.768.4,2,2,0,0,1,.362.564,5.66,5.66,0,0,1,.37.99,13.9,13.9,0,0,1,.407,2.557,36.587,36.587,0,0,1,0,3.769c-.024,1.113-.017,2.263-.111,3.377-.059.705-.118,1.412-.156,2.119a35.947,35.947,0,0,0,.059,6.257c.224,1.909.808,3.729.952,5.656a28.35,28.35,0,0,1-.056,3.64c-.15,2.884-.172,5.773-.427,8.651a.485.485,0,0,1-.222.433c-.527.428-1.4,1.284-2.091,1.328a4.826,4.826,0,0,1-3.461-.81,30.173,30.173,0,0,0,.125-4.379c-.088-1.983-.059-3.919-.307-5.892a10.619,10.619,0,0,0-.311-1.456c-.418-1.535-1.2-3.271-1.552-4.823a25.442,25.442,0,0,1-.5-2.709c-.3-2.061-.727-5.173-.847-7.286-.07-1.263-.22-2.271-.293-3.535a.994.994,0,0,0-.076-.4,1.044,1.044,0,0,0-.192-.246C537.307,384.673,537.074,384.453,536.842,384.219Z" transform="translate(-531.32 -371.133)" fill="#4a779d"/>
          </g>
          <path id="Path_13" data-name="Path 13" d="M544.514,405.671a28.283,28.283,0,0,0,.056-3.64c-.143-1.929-.727-3.749-.951-5.656a36.292,36.292,0,0,1-.059-6.259c.04-.707.1-1.413.157-2.118.094-1.114.087-2.264.111-3.377.012-.586.4-3.51-.31-3.485-3.018.108-6.131.5-8.986-.485-.835-.288-.709-1.619-.608-2.291a10.014,10.014,0,0,1,.623-3.3c1.057-1.973,2.97-.948,4.589-.584a6.381,6.381,0,0,0,2.872.153,4.139,4.139,0,0,1,1.325.168,1.486,1.486,0,0,1,1.13.961,5.637,5.637,0,0,1,.37.99,13.89,13.89,0,0,1,.407,2.557,36.6,36.6,0,0,1,0,3.769c-.024,1.113-.017,2.263-.111,3.377-.059.705-.118,1.412-.157,2.119a35.941,35.941,0,0,0,.059,6.257c.224,1.909.808,3.729.951,5.656a28.283,28.283,0,0,1-.056,3.64c-.15,2.884-.172,5.773-.427,8.651a.486.486,0,0,1-.222.433c-.308.249-.736.643-1.175.939C544.341,411.324,544.368,408.494,544.514,405.671Z" transform="translate(-522.136 -334.668)" fill="#266392"/>
          <path id="Path_14" data-name="Path 14" d="M531.424,380.4c-.194,2.38-.483,4.754-.5,7.145a.976.976,0,0,0,.079.488.929.929,0,0,0,.3.295,7.122,7.122,0,0,0,1.7.847c.65.247,1.254.581,1.924.793a16.212,16.212,0,0,0,11.1-.035s-.972-9.074-.412-10.284,4.407-5.964,4.491-8.783.688-5.171-2.152-7.454a50.749,50.749,0,0,0-4.262-3.231,15.894,15.894,0,0,0-3.266-1.677,5.8,5.8,0,0,0-3.414.027c-1.948.507-3.574,1.14-4.246,2.1a7.8,7.8,0,0,0-1.1,3.323,33.914,33.914,0,0,0-.269,5.757c.056,2.87.291,5.72.165,8.592C531.529,379,531.48,379.7,531.424,380.4Z" transform="translate(-523.992 -345.172)" fill="#79acff"/>
          <path id="Path_15" data-name="Path 15" d="M537.186,360.955c-1.692-.168-3.126-.951-4.823-.817a6.357,6.357,0,0,1,3.215-2.017,7.328,7.328,0,0,1,3.863.549,15.9,15.9,0,0,1,3.266,1.677,59.445,59.445,0,0,1,5.394,3.362c2.839,2.284,2.232,4.636,2.15,7.456-.01.343-1.2.552-1.291.885a15.475,15.475,0,0,1-2.187,4.455,8.336,8.336,0,0,1-.867,1.239c-.165.173-.093.747-.1.956-.012.724.01,1.449.039,2.172a51.132,51.132,0,0,0,.764,7.411c.1.534.34.848-.165,1.193a7.261,7.261,0,0,1-1.626.737,4.982,4.982,0,0,1-.783.15c.034-.007-.121-4.256-.118-4.392a46.9,46.9,0,0,0-.049-4.717c-.158-2.044-.323-4.087-.416-6.134a22.939,22.939,0,0,1-.083-2.631q.1-1.434.271-2.863a10.088,10.088,0,0,1,.779-3.808,4.185,4.185,0,0,1,.795-1.066c.571-.5.439-.67-.062-1.128a7.089,7.089,0,0,0-1.529-1.069,10.888,10.888,0,0,0-2.049-.885,3.655,3.655,0,0,0-.549-.126C539.747,361.374,538.482,361.085,537.186,360.955Z" transform="translate(-523.138 -345.336)" fill="#548de3"/>
          <path id="Path_16" data-name="Path 16" d="M540.377,390.761c.14-.185.369-.46.606-.739a1.508,1.508,0,0,1,.116-.185,8.265,8.265,0,0,0,1.025-1.237,4.05,4.05,0,0,0,.418-1.507,36.072,36.072,0,0,0-.041-4.308c-.045-1.485.106-2.924.156-4.4a9.609,9.609,0,0,0-.855-3.685,16.2,16.2,0,0,1-.776-3.082,36.122,36.122,0,0,1-.386-3.8,1.464,1.464,0,0,1,.044-.6c.406-1.1,2.461-.95,3.347-.914a.838.838,0,0,1,.422.1.852.852,0,0,1,.3.508,43.742,43.742,0,0,1,1.224,6.673q.184,1.313.4,2.621c.093.579-.01,1.512.7,1.653a21.128,21.128,0,0,1-1.1,6.427c-1.206,3.906-1.455,4.311-1.461,5.917a2.859,2.859,0,0,1-.143,1.4,6.6,6.6,0,0,1-.424.929,12.422,12.422,0,0,1-.677,1.628c-.231.559.012.54-1.283.946s-1.034-.338-1.034-.338l-.406-.045a.29.29,0,0,1-.28-.4l.554-2.429a1.492,1.492,0,0,1-.1-.342c-.431.354-1.374,1.076-1.68.859C538.639,392.123,539.984,391.282,540.377,390.761Z" transform="translate(-518.963 -339.791)" fill="#e8b58f"/>
          <path id="Path_17" data-name="Path 17" d="M542.6,371.906a23.166,23.166,0,0,1-.614-3.352,3.142,3.142,0,0,1,1.2-3.015.4.4,0,0,1,.362-.057c.128.064.158.227.173.369a47.77,47.77,0,0,1,.6,6.638,18.784,18.784,0,0,0,.51,3.21,14.945,14.945,0,0,1,.185,3.422,26.555,26.555,0,0,1-1.091,5.725c-1.205,3.906-1.454,4.311-1.461,5.917a4.4,4.4,0,0,1-.046,1.116,5.686,5.686,0,0,1-.449-2.3,37.577,37.577,0,0,1,1.217-5.439,20.085,20.085,0,0,0,.3-6.512A45.525,45.525,0,0,0,542.6,371.906Z" transform="translate(-517 -340.345)" fill="#e0aa82"/>
          <path id="Path_18" data-name="Path 18" d="M540.526,374.215c-.9-3.052-1.717-6.325-1.534-7.592.382-2.633.689-4.328,2.042-4.973,0,0,4.068-1.461,4.835,3.5a66.252,66.252,0,0,1,.648,6.722C545.255,373.541,542.834,374.232,540.526,374.215Z" transform="translate(-518.948 -343.05)" fill="#99c0ff"/>
          <path id="Path_19" data-name="Path 19" d="M544.171,373.156c-.515-2.613-.845-3.739-1.5-8-.352-2.276-1.4-3.2-2.426-3.53.55-.167,4.049-1.044,4.756,3.53a66.207,66.207,0,0,1,.648,6.722A4.94,4.94,0,0,1,544.171,373.156Z" transform="translate(-518.115 -343.05)" fill="#73a9fa"/>
          <path id="Path_20" data-name="Path 20" d="M538.372,358.775a5.965,5.965,0,0,1,.084.993c0,.1,0,.2.009.3a2.473,2.473,0,0,0,.128.515,3.692,3.692,0,0,1,.229-.379,1.812,1.812,0,0,0,.133-.46.661.661,0,0,0-.059-.512A3.332,3.332,0,0,0,538.372,358.775Z" transform="translate(-519.163 -344.821)" fill="#47a0ff"/>
          <path id="Path_21" data-name="Path 21" d="M534.148,363.253c-.01.21-.012.422-.008.633.017.86-.3,1.8.165,2.544.362.581.742-2.387,1.15-2.859.737-.859,2.264,1.471,3.018.641.83-.909,1.884-1.646,2.756-2.52a.775.775,0,0,0,.232-1.018,3.524,3.524,0,0,0-2.315-2.141,5.8,5.8,0,0,0-3.413-.1c-.36.667-.685,1.353-.991,2.047A7.664,7.664,0,0,0,534.148,363.253Z" transform="translate(-521.932 -345.194)" fill="#eaa685"/>
          <path id="Path_22" data-name="Path 22" d="M533.8,366.173c.108-.571.205-1.143.311-1.714a12.849,12.849,0,0,1,.64-2.508.814.814,0,0,1,.966-.616c.473.077.587.448.749.872.365.966-.056,1.868-.251,2.832-.338,1.66-.5,3.348-.709,5.029-.017.14-.924-.2-1-.229a4.287,4.287,0,0,1-1.049-.566c-.221-.148-.162-.3-.13-.542.066-.5.145-1.022.257-1.515C533.665,366.868,533.735,366.521,533.8,366.173Z" transform="translate(-522.336 -343.136)" fill="#548de3"/>
          <path id="Path_23" data-name="Path 23" d="M535.009,360.756l.707,1.638-1.583,2.183a5.558,5.558,0,0,1-1.1-3.938C533.144,358,535.009,360.756,535.009,360.756Z" transform="translate(-522.499 -344.372)" fill="#a3d4ff"/>
          <path id="Path_24" data-name="Path 24" d="M539.678,360.605a.766.766,0,0,1-.207.99c-.232.234-.476.455-.72.675-.316.278-.64.552-.958.828-.178.148-.355.3-.537.444a.867.867,0,0,0-.256.295c-.1.1-.212.2-.31.306l-.03.035a3.7,3.7,0,0,0,.3-1.074c.025-.172.047-.345.074-.522a8.67,8.67,0,0,0,.072-1.892c-.057-.739-.217-1.47-.22-2.209,0-.052.012-.1.013-.153a3.446,3.446,0,0,1,.466.135A3.524,3.524,0,0,1,539.678,360.605Z" transform="translate(-520.264 -345.125)" fill="#d98f6c"/>
          <path id="Path_25" data-name="Path 25" d="M540.44,358.336c.012.1.02.2.029.3q.068.909.086,1.821c0,.215.084.636-.03.813a1.922,1.922,0,0,1-.426.352,9.676,9.676,0,0,1-2.54,1.441c-2.308.864-2.978.32-2.978.32l-.254-4.86a2.83,2.83,0,0,1,.5-.22c.421-.177.848-.342,1.279-.49a12.784,12.784,0,0,1,2.31-.594,5.652,5.652,0,0,1,1.118-.061.663.663,0,0,1,.451.131,1.468,1.468,0,0,1,.365.606A2.283,2.283,0,0,1,540.44,358.336Z" transform="translate(-521.745 -345.93)" fill="#eaa685"/>
          <path id="Path_26" data-name="Path 26" d="M539.026,357.168a3.352,3.352,0,0,1,1.344.136c.337.121.758.385.783.771.076,1.19.111,2.379.3,3.56a.246.246,0,0,1-.211.332,7.906,7.906,0,0,1-1.281.34,4.755,4.755,0,0,0-1.172.217.746.746,0,0,0-.289-.618c-.246-.133-.546.182-.771.253a9.925,9.925,0,0,1-1.022.286,7.407,7.407,0,0,1-2.111.125c-.162-.015-.364-.02-.392-.216a.288.288,0,0,1,.151-.279,6.739,6.739,0,0,1,.742-.3c.662-.355,1.244-.85,1.938-1.152a8.875,8.875,0,0,0,1.177-.5c.184-.115.387-.278.394-.507.01-.258-.047-.514-.012-.784a5.681,5.681,0,0,1,.185-.838A5.56,5.56,0,0,1,539.026,357.168Z" transform="translate(-521.837 -345.927)" fill="#d98f6c"/>
          <path id="Path_27" data-name="Path 27" d="M532.655,355.966c.532-.069.705-.374.88-.848a4.567,4.567,0,0,0,.446-1.69,3.193,3.193,0,0,0-.057-.542,4.277,4.277,0,0,1,1.917-.783,7.092,7.092,0,0,1,5.648,2.439,2.561,2.561,0,0,1,.285.386,2.186,2.186,0,0,1,.278.513c.949,2.308,3.907,2.9-.965,7.976,0,0-.074.066-.2.185a1.289,1.289,0,0,0-.15.131l-.18.157c-.209.17-.461.365-.759.587a7.365,7.365,0,0,1-2.628,1.281c-1.875.357-3.259-.088-3.473-1.557-.2-1.36-1.55-6.47-1.37-8.392A.36.36,0,0,0,532.655,355.966Z" transform="translate(-523.04 -349.402)" fill="#f0b88f"/>
          <path id="Path_28" data-name="Path 28" d="M533.088,354.743a5.251,5.251,0,0,0,.433-1.53c.049-.018.1-.037.141-.055a7.309,7.309,0,0,1,2.593-.522,8.634,8.634,0,0,1,2,.118,4.953,4.953,0,0,1,2.789,1.414,2.566,2.566,0,0,1,.285.386,2.18,2.18,0,0,1,.278.513c.95,2.308,3.907,2.9-.964,7.976,0,0-.074.066-.2.185a1.264,1.264,0,0,0-.15.131.989.989,0,0,0-.18.157q-.313.255-.759.587a7.8,7.8,0,0,0,.118-1.941c-.017-.289-.023-.6-.047-.88a1.84,1.84,0,0,0-.367-.773,2.13,2.13,0,0,1-.306-.631c-.039-.188-.01-.392-.036-.584-.091-.712.01-1.449-.141-2.147a2.409,2.409,0,0,0-2.067-2,4.015,4.015,0,0,0-1,.064,4.112,4.112,0,0,1-.921.025,12.579,12.579,0,0,1-1.424-.167c-.067-.012-.126-.035-.19-.05A2.718,2.718,0,0,0,533.088,354.743Z" transform="translate(-522.631 -349.027)" fill="#df9876"/>
          <g id="Group_17" data-name="Group 17" transform="translate(10.989)">
            <path id="Path_29" data-name="Path 29" d="M533.69,354.606a4.879,4.879,0,0,0,.3-2.069,7.668,7.668,0,0,1,3.811-1.971,5.319,5.319,0,0,1,4.724,1.534.512.512,0,0,1,.1.116.7.7,0,0,1,.094.092.926.926,0,0,1,.209.2,6.194,6.194,0,0,1,.439.6c.052.084.094.158.147.241a5.475,5.475,0,0,1,.586,1.651c.01.064.02.137.032.2a7.07,7.07,0,0,1,.03,1.256,8.6,8.6,0,0,1-.283,1.535c-.135.524-.281,1.045-.438,1.569-.042.126-.074.251-.1.365-.189.608-.367,1.214-.544,1.81a6.286,6.286,0,0,1-.315,1.087,2.671,2.671,0,0,1-.669.71c-.251.209-.5.407-.794.616l-.01.01a.019.019,0,0,0,0-.03,2.4,2.4,0,0,0-.032-.46v-.042a4.974,4.974,0,0,1,.921-2.562,3.129,3.129,0,0,0,.428-.909,1.175,1.175,0,0,0,.042-.345c0-.062-.01-.125-.01-.189a1.54,1.54,0,0,0-.231-.795.887.887,0,0,0-1.485.157,4.964,4.964,0,0,0-.375,1.234,4.881,4.881,0,0,0-.146,1.035c-.01.114-.01.231-.01.345-.293.084-.576.167-.868.241-.02-.168-.052-.335-.083-.5-.158-.973-.357-1.924-.451-2.917-.01-.052-.01-.094-.02-.146-.01-.03-.01-.072-.02-.1-.293-1.736-2.113-2.352-5.175-2.352-.04,0-.072,0-.109,0C533.486,355.414,533.585,355.01,533.69,354.606Z" transform="translate(-533.38 -350.486)" fill="#a34512"/>
            <path id="Path_30" data-name="Path 30" d="M536.519,357.575a2.222,2.222,0,0,1,.04.251c.094.993.293,1.944.451,2.917.03.167.062.335.082.5.293-.072.576-.157.869-.241v-.114c0-.115,0-.231.01-.345a5.308,5.308,0,0,1,.146-.919,4.976,4.976,0,0,1,.375-1.234.886.886,0,0,1,1.485-.157,1.591,1.591,0,0,1,.231.678c0,.064.01.126.01.189a2.045,2.045,0,0,1-.042.46.536.536,0,0,1-.042.126,3.4,3.4,0,0,1-.385.784,5.048,5.048,0,0,0-.921,2.488v.072c0,.062.032.251.032.387a.031.031,0,0,1,.01.02c.293-.209.544-.407.795-.616a2.673,2.673,0,0,0,.668-.71,6.243,6.243,0,0,0,.315-1.088c.177-.6.355-1.2.544-1.81.031-.114.062-.239.1-.365q.235-.785.438-1.569a8.619,8.619,0,0,0,.283-1.535,7.1,7.1,0,0,0-.03-1.256c-.012-.062-.022-.135-.032-.2a7.254,7.254,0,0,0-.586-1.651c-.052-.082-.094-.157-.146-.241a6.457,6.457,0,0,0-.44-.6.924.924,0,0,0-.209-.2.685.685,0,0,0-.094-.093,1.537,1.537,0,0,1,.3.407,3.283,3.283,0,0,1-.7,3.564,7.632,7.632,0,0,1-1.391.816,18.4,18.4,0,0,0-1.965,1.128,1.279,1.279,0,0,0-.189.136C536.529,357.565,536.529,357.565,536.519,357.575Z" transform="translate(-531.235 -349.784)" fill="#7d350e"/>
          </g>
          <path id="Path_31" data-name="Path 31" d="M543.069,375.347c.009.113.009.178.009.189C543.116,375.526,543.078,375.421,543.069,375.347Z" transform="translate(-516.24 -333.609)" fill="#d18d6d"/>
          <path id="Path_32" data-name="Path 32" d="M541.081,358.95a2.171,2.171,0,0,1,.747.618,13.525,13.525,0,0,1,.97,1.261,7.625,7.625,0,0,1-5.592,4.512l-1.715.268-.567-2.722S541.682,362.107,541.081,358.95Z" transform="translate(-521.409 -344.705)" fill="#a3d4ff"/>
        </g>
        <path id="Path_33" data-name="Path 33" d="M534.259,358.328a1.528,1.528,0,0,1,.276-.008,7.5,7.5,0,0,1,4.609,1.389s1.717.328,5.3-3.072a1.2,1.2,0,0,0,.362-1.018,5.166,5.166,0,0,0-2.131-4.135,6.809,6.809,0,0,0-4.653-1.32,4.981,4.981,0,0,0-3.451,1.855,7.357,7.357,0,0,0-1.589,4.6S531.385,358.552,534.259,358.328Z" transform="translate(-522.919 -350.135)" fill="#70c0ff"/>
        <path id="Path_34" data-name="Path 34" d="M533.725,358.305a7.5,7.5,0,0,1,4.609,1.389s1.717.328,5.3-3.072A1.2,1.2,0,0,0,544,355.6a5.165,5.165,0,0,0-2.131-4.135,5.967,5.967,0,0,0-3.384-1.311c.354.224,2.416.986,2.407,3.151-.01,2.527-4,7.382-6.416,5.19C533.747,357.842,534.338,356.776,533.725,358.305Z" transform="translate(-522.175 -350.12)" fill="#48a2cf"/>
        <path id="Path_35" data-name="Path 35" d="M530.8,356.443c.241-.207.8-.466,1.872-.034a12.208,12.208,0,0,1,3.539,2.123c1.3,1.044,4.118-1.209,4.118-1.209a10.15,10.15,0,0,0-.544-1,2.1,2.1,0,0,0-.113-.18c-1.949-3-4.618-2.884-6.239-1.874-.226.138-.441.285-.648.431-.069.061-.146.113-.215.173A15.535,15.535,0,0,0,530.8,356.443Z" transform="translate(-523.924 -347.75)" fill="#304d61"/>
        <path id="Path_36" data-name="Path 36" d="M530.711,355.45s.042-.052.12-.13A.5.5,0,0,0,530.711,355.45Z" transform="translate(-523.64 -346.592)" fill="#304d61"/>
        <path id="Path_37" data-name="Path 37" d="M539.542,356.14c-.818.569-2.715,1.719-3.721.916a12.169,12.169,0,0,0-3.544-2.125,3.144,3.144,0,0,0-.761-.215c.082-.069.165-.138.252-.209a3.647,3.647,0,0,1,.508.163,12.174,12.174,0,0,1,3.544,2.126c.966.773,2.756-.261,3.62-.847C539.475,356.01,539.508,356.078,539.542,356.14Z" transform="translate(-523.476 -347.147)" fill="#3b5f78"/>
        <path id="Path_38" data-name="Path 38" d="M531.854,354.437c.008,0,.017.008.025.008a13.6,13.6,0,0,1,3.833,2.131c.88.7,2.432-.086,3.357-.69a2.067,2.067,0,0,0-.113-.18c-.931.586-2.407,1.276-3.244.6a13.478,13.478,0,0,0-3.643-2.047C532,354.324,531.923,354.376,531.854,354.437Z" transform="translate(-523.263 -347.314)" fill="#3b5f78"/>
        <path id="Path_39" data-name="Path 39" d="M535.057,363.839c-.17.32-.5.439-.731.268a.724.724,0,0,1-.116-.9c.172-.322.5-.438.732-.261A.724.724,0,0,1,535.057,363.839Z" transform="translate(-521.809 -341.494)" fill="#fff"/>
        <path id="Path_40" data-name="Path 40" d="M534.687,365.937c-.17.32-.5.439-.731.266a.722.722,0,0,1-.116-.9c.172-.32.5-.436.732-.261A.727.727,0,0,1,534.687,365.937Z" transform="translate(-522.038 -340.07)" fill="#fff"/>
      </g>
    </g>
  </g>
</svg>
